<svg width="512" height="512" viewBox="0 0 512 512" xmlns="http://www.w3.org/2000/svg" role="img" aria-label="Creator Brain placeholder logo dark">
  <defs>
    <filter id="noise" x="0" y="0" width="100%" height="100%">
      <feTurbulence type="fractalNoise" baseFrequency="0.9" numOctaves="3" seed="3" stitchTiles="stitch" />
      <feColorMatrix type="matrix" values="1 0 0 0 0  0 1 0 0 0  0 0 1 0 0  0 0 0 0.05 0" />
    </filter>
  </defs>
  <rect width="512" height="512" fill="#020617" rx="40" />
  <g transform="translate(0 8)">
    <path
      d="M256 76c-82 0-150 68-150 150 0 61 34 115 86 138v61l40-30 40 30v-58c14 3 27 5 42 5 82 0 150-68 150-150S338 76 256 76z"
      fill="#f9fafb"
    />
    <path
      d="M256 100c-67 0-124 57-124 126 0 50 25 94 65 114l7 3v72l24-18 28 20v-72l13 3c10 2 21 4 32 4 67 0 124-57 124-126S323 100 256 100z"
      fill="none"
      stroke="#020617"
      stroke-width="6"
      stroke-linecap="round"
      stroke-linejoin="round"
      opacity="0.25"
    />
    <path
      d="M238 324c-18-20-29-46-29-73 0-49 36-89 81-89 43 0 78 38 78 85 0 43-31 79-70 84"
      fill="none"
      stroke="#020617"
      stroke-width="9"
      stroke-linecap="round"
      stroke-linejoin="round"
    />
    <path
      d="M214 202c-20 9-37 28-42 52-6 29 5 59 27 78"
      fill="none"
      stroke="#020617"
      stroke-width="8"
      stroke-linecap="round"
      stroke-linejoin="round"
    />
    <path
      d="M280 192c15-10 35-11 52-3 22 10 35 32 38 54 3 23-4 45-17 64"
      fill="none"
      stroke="#020617"
      stroke-width="8"
      stroke-linecap="round"
      stroke-linejoin="round"
    />
    <path
      d="M250 193c-14-12-32-18-50-16-20 3-37 15-48 33"
      fill="none"
      stroke="#020617"
      stroke-width="7"
      stroke-linecap="round"
      stroke-linejoin="round"
    />
    <path
      d="M288 184c11-15 28-25 47-26 19-1 38 6 51 20"
      fill="none"
      stroke="#020617"
      stroke-width="7"
      stroke-linecap="round"
      stroke-linejoin="round"
    />
    <path
      d="M256 238c-9-23-34-34-56-24-14 6-24 20-26 36"
      fill="none"
      stroke="#020617"
      stroke-width="7"
      stroke-linecap="round"
      stroke-linejoin="round"
    />
    <path
      d="M282 246c8-18 30-26 48-17 12 6 20 18 22 32"
      fill="none"
      stroke="#020617"
      stroke-width="7"
      stroke-linecap="round"
      stroke-linejoin="round"
    />
    <path
      d="M256 332c-2 28-10 54-22 76-8 15-19 28-31 37"
      fill="none"
      stroke="#020617"
      stroke-width="9"
      stroke-linecap="round"
      stroke-linejoin="round"
    />
    <path
      d="M272 339c1 21 7 41 17 59 8 14 19 25 31 33"
      fill="none"
      stroke="#020617"
      stroke-width="8"
      stroke-linecap="round"
      stroke-linejoin="round"
    />
    <path
      d="M256 368c-6 30-23 56-46 74"
      fill="none"
      stroke="#020617"
      stroke-width="7"
      stroke-linecap="round"
      stroke-linejoin="round"
      opacity="0.7"
    />
    <path
      d="M256 368c8 27 24 50 46 67"
      fill="none"
      stroke="#020617"
      stroke-width="7"
      stroke-linecap="round"
      stroke-linejoin="round"
      opacity="0.7"
    />
    <rect width="512" height="512" fill="#ffffff" filter="url(#noise)" opacity="0.12" />
  </g>
</svg>
